<svg width="46" height="45" viewBox="0 0 46 45" fill="none" xmlns="http://www.w3.org/2000/svg">
<path fill-rule="evenodd" clip-rule="evenodd" d="M22.8198 44.9835C35.0974 44.9835 45.0504 35.0695 45.0504 22.8399C45.0504 10.6102 35.0974 0.696167 22.8198 0.696167C10.5423 0.696167 0.589355 10.6102 0.589355 22.8399C0.589355 35.0695 10.5423 44.9835 22.8198 44.9835Z" fill="#EC1C24"/>
<path fill-rule="evenodd" clip-rule="evenodd" d="M25.0559 6.20323C25.2888 7.01905 25.2888 7.91257 25.0559 8.72838C24.9783 8.96148 24.8229 9.15572 24.5511 9.23342C23.7358 9.46651 22.8427 9.46651 22.0274 9.23342C21.7943 9.15572 21.6003 9.00032 21.5226 8.72838C21.2897 7.91257 21.2897 7.01905 21.5226 6.20323C21.6003 5.97013 21.7556 5.77589 22.0274 5.6982C22.8427 5.4651 23.7358 5.4651 24.5511 5.6982C24.8229 5.77589 24.9783 5.97013 25.0559 6.20323ZM9.83559 12.8463C10.651 13.0405 11.4275 13.5068 11.9711 14.1283C12.1264 14.3225 12.204 14.5557 12.1264 14.7888C11.9323 15.6046 11.4663 16.3816 10.8451 16.9254C10.651 17.0809 10.418 17.1585 10.185 17.0809C9.36967 16.8866 8.59312 16.4204 8.04954 15.7989C7.89424 15.6046 7.81658 15.3715 7.89424 15.1384C8.08837 14.3225 8.55429 13.5456 9.17554 13.0017C9.33084 12.8463 9.60263 12.8075 9.83559 12.8463ZM16.5527 7.52408C17.174 8.10681 17.6011 8.88378 17.7952 9.6996C17.8341 9.93269 17.7952 10.2046 17.6011 10.36C17.0186 10.9816 16.2421 11.4089 15.4267 11.6032C15.1938 11.642 14.9219 11.6032 14.7667 11.4089C14.1455 10.8262 13.7183 10.0492 13.5242 9.23342C13.4854 9.00032 13.5242 8.72838 13.7183 8.57299C14.3007 7.95142 15.0773 7.52408 15.8926 7.32983C16.1644 7.29098 16.3974 7.36868 16.5527 7.52408ZM38.5677 15.8377C37.9854 16.4593 37.2476 16.9254 36.4323 17.1196C36.1994 17.1973 35.9276 17.1196 35.7722 16.9643C35.151 16.3816 34.6851 15.6434 34.4909 14.8276C34.4133 14.5945 34.4909 14.3225 34.6462 14.1672C35.2286 13.5456 35.9663 13.0794 36.7817 12.8852C37.0147 12.8075 37.2865 12.8852 37.4418 13.0405C38.063 13.6234 38.529 14.3614 38.7231 15.1773C38.8007 15.4104 38.7619 15.6434 38.5677 15.8377ZM33.0932 9.23342C32.899 10.0492 32.4719 10.8262 31.8507 11.4089C31.6565 11.5643 31.4235 11.642 31.1906 11.6032C30.3752 11.4089 29.5987 10.9816 29.0163 10.36C28.861 10.1658 28.7833 9.93269 28.8221 9.6996C29.0163 8.88378 29.4433 8.10681 30.0646 7.52408C30.2588 7.36868 30.4917 7.29098 30.7247 7.32983C31.54 7.52408 32.3166 7.95142 32.899 8.57299C33.0543 8.76724 33.1319 9.00032 33.0932 9.23342Z" fill="#FAFAF9"/>
<path fill-rule="evenodd" clip-rule="evenodd" d="M24.24 27.2204C25.6767 25.0449 26.6861 22.5586 27.0356 19.8391C27.0356 19.7226 27.1133 19.6449 27.1909 19.606C27.2686 19.5672 27.3851 19.5672 27.4627 19.6449C28.4722 20.4218 29.5982 21.0046 30.8407 21.393C30.9959 21.4319 31.1124 21.5873 31.0737 21.7815C30.4524 24.8894 29.1711 27.7642 27.3462 30.2505C27.3073 30.3282 27.1909 30.3671 27.1133 30.4059C26.9968 30.4059 26.9191 30.4059 26.8414 30.3282C25.8708 29.5901 25.0166 28.6966 24.24 27.7642C24.1624 27.6089 24.1235 27.4146 24.24 27.2204Z" fill="#FAFAF9"/>
<path fill-rule="evenodd" clip-rule="evenodd" d="M23.037 34.3296C19.2319 31.1829 16.514 26.793 15.5046 21.7815C15.4657 21.6262 15.5822 21.4708 15.7376 21.393C16.98 21.0046 18.1059 20.4218 19.1155 19.6449C19.1932 19.5672 19.3097 19.5672 19.3873 19.606C19.4649 19.6449 19.5426 19.7226 19.5426 19.8391C20.1639 24.4621 22.61 28.5412 26.1045 31.2606C26.1821 31.3383 26.2209 31.416 26.2209 31.4936C26.2209 31.6102 26.2209 31.688 26.1432 31.7657C25.3279 32.698 24.4737 33.5527 23.5418 34.3296C23.4253 34.485 23.1923 34.485 23.037 34.3296Z" fill="#FAFAF9"/>
<path fill-rule="evenodd" clip-rule="evenodd" d="M38.9564 23.4132C40.0435 22.7916 40.6259 21.5485 40.4318 20.3441C40.4318 20.2664 40.3541 20.1887 40.2765 20.1499C40.1989 20.111 40.0824 20.111 40.0047 20.1887C37.8304 21.5873 35.2289 22.17 32.6664 21.8204C32.511 21.7815 32.3557 21.8981 32.3169 22.0923C31.9286 23.9959 31.3074 25.8217 30.492 27.5311C30.4532 27.6088 30.4532 27.7253 30.492 27.803C30.5308 27.8808 30.6085 27.9584 30.6862 27.9972C32.744 28.8907 34.996 29.4347 37.3256 29.4736C37.4809 29.4736 37.6362 29.3958 37.7139 29.2404C38.4516 27.4145 38.9175 25.4721 38.9564 23.4132Z" fill="#FAFAF9"/>
<path fill-rule="evenodd" clip-rule="evenodd" d="M26.57 18.8292C27.3855 18.7126 34.8015 17.3918 32.1612 15.294C29.948 13.507 27.3855 12.1473 24.5511 11.3314C23.6969 11.0983 22.8814 11.0983 22.0272 11.3314C19.2317 12.1473 16.6303 13.507 14.4171 15.294C11.7768 17.4306 19.1928 18.7126 20.0083 18.8292C20.5907 20.422 21.7943 22.5975 23.2697 22.5975C24.784 22.5975 26.0265 20.422 26.57 18.8292Z" fill="#FAFAF9"/>
<path fill-rule="evenodd" clip-rule="evenodd" d="M8.94272 29.2015C8.16617 27.4144 7.70025 25.4332 7.66142 23.3742C6.57425 22.7526 6.03067 21.5095 6.2248 20.3052C6.2248 20.2275 6.30246 20.1497 6.38012 20.111C6.45778 20.0721 6.57425 20.0721 6.65191 20.1497C8.82623 21.5872 11.4277 22.131 13.9903 21.7814C14.1456 21.7425 14.3009 21.8591 14.3397 22.0533C14.728 23.9569 15.3492 25.7829 16.1645 27.4921C16.2034 27.5699 16.2034 27.6864 16.1645 27.7641C16.1258 27.8418 16.0481 27.9195 15.9705 27.9584C13.9126 28.8519 11.6606 29.3957 9.33099 29.4346C9.17568 29.4734 9.02038 29.3569 8.94272 29.2015Z" fill="#FAFAF9"/>
<path fill-rule="evenodd" clip-rule="evenodd" d="M30.7634 38.6029C28.5115 39.6907 25.9877 40.2734 23.3475 40.2734C22.9204 40.2734 22.4933 40.2734 22.0662 40.2345C21.9886 40.2345 21.9108 40.1957 21.8332 40.1179C21.7944 40.0403 21.7556 39.9626 21.7944 39.8849C22.9204 35.5339 26.8808 32.3483 31.5789 32.3483C33.5591 32.3483 34.5298 33.2806 34.5298 34.5238C34.5298 36.0777 33.2873 37.3986 30.7634 38.6029Z" fill="#FAFAF9"/>
<path fill-rule="evenodd" clip-rule="evenodd" d="M15.8927 38.6028C17.2128 39.2244 18.6493 39.7295 20.1636 40.0014C20.3578 40.0402 20.5131 39.9237 20.5519 39.7295C20.9014 38.3309 21.5226 37.01 22.3379 35.8446C22.4544 35.6892 22.4544 35.4561 22.2992 35.3396C20.4743 33.4749 17.9116 32.3093 15.0772 32.3093C13.097 32.3093 12.1264 33.2417 12.1264 34.4848C12.0876 36.0776 13.3301 37.3985 15.8927 38.6028Z" fill="#FAFAF9"/>
</svg>
